<?xml version="1.0" encoding="utf-8"?>
<!-- Generator: Adobe Illustrator 16.0.0, SVG Export Plug-In . SVG Version: 6.00 Build 0)  -->
<!DOCTYPE svg PUBLIC "-//W3C//DTD SVG 1.1//EN" "http://www.w3.org/Graphics/SVG/1.1/DTD/svg11.dtd">
<svg version="1.1" id="Layer_1" xmlns="http://www.w3.org/2000/svg" xmlns:xlink="http://www.w3.org/1999/xlink" x="0px" y="0px"
	 width="100px" height="80px" viewBox="-943 434.5 100 80" enable-background="new -943 434.5 100 80"
	 xml:space="preserve">
<polygon fill="#FFFFFF" points="-850.57,441.445 -857.674,434.5 -864.786,441.445 -871.899,434.5 -879.013,441.445 -886.115,434.5
	-893.231,441.445 -900.336,434.5 -907.449,441.445 -914.561,434.5 -921.675,441.444 -928.778,434.5 -935.896,441.445 -943,434.5
	-943,458.089 -943,490.283 -943,513.87 -936.216,506.926 -929.114,513.87 -922.001,506.926 -914.887,513.87 -907.774,506.926
	-900.671,513.87 -893.556,506.926 -886.451,513.87 -879.338,506.926 -872.228,513.87 -865.112,506.927 -858.009,513.87
	-850.891,506.926 -843.787,513.87 -843.787,490.283 -843.787,458.089 -843.787,434.5 "/>
</svg>
