<?xml version="1.0" encoding="utf-8"?>
<!-- Generator: Adobe Illustrator 16.0.0, SVG Export Plug-In . SVG Version: 6.00 Build 0)  -->
<!DOCTYPE svg PUBLIC "-//W3C//DTD SVG 1.1//EN" "http://www.w3.org/Graphics/SVG/1.1/DTD/svg11.dtd">
<svg version="1.1" id="Layer_1" xmlns="http://www.w3.org/2000/svg" xmlns:xlink="http://www.w3.org/1999/xlink" x="0px" y="0px"
	 width="113px" height="68.001px" viewBox="0 0 113 68.001" enable-background="new 0 0 113 68.001" xml:space="preserve">
<polygon fill="#FF1DE0" points="105.273,7.949 97.184,0 89.083,7.949 80.98,0 72.879,7.949 64.789,0 56.685,7.949 48.593,0 
	40.491,7.949 32.391,0 24.289,7.948 16.198,0 8.092,7.949 0,0 0,27 0,41.001 0,68.001 7.727,60.052 15.816,68.001 23.917,60.052 
	32.02,68.001 40.121,60.052 48.211,68.001 56.315,60.052 64.407,68.001 72.509,60.052 80.608,68.001 88.711,60.053 96.802,68.001 
	104.908,60.052 113,68.001 113,41.001 113,27 113,0 "/>
</svg>
