<?xml version="1.0" encoding="utf-8"?>
<!-- Generator: Adobe Illustrator 16.0.0, SVG Export Plug-In . SVG Version: 6.00 Build 0)  -->
<!DOCTYPE svg PUBLIC "-//W3C//DTD SVG 1.1//EN" "http://www.w3.org/Graphics/SVG/1.1/DTD/svg11.dtd">
<svg version="1.1" id="Layer_1" xmlns="http://www.w3.org/2000/svg" xmlns:xlink="http://www.w3.org/1999/xlink" x="0px" y="0px"
	 width="85.039px" height="51.023px" viewBox="0 0 85.039 51.023" enable-background="new 0 0 85.039 51.023" xml:space="preserve">
<polygon fill="#FFFFFF" points="79.226,5.965 73.138,0 67.041,5.965 60.943,0 54.846,5.965 48.758,0 42.66,5.965 36.569,0 
	30.473,5.965 24.376,0 18.279,5.964 12.19,0 6.089,5.965 0,0 0,20.26 0,30.767 0,51.023 5.815,45.06 11.902,51.023 17.999,45.06 
	24.097,51.023 30.193,45.06 36.282,51.023 42.38,45.06 48.471,51.023 54.567,45.06 60.662,51.023 66.761,45.061 72.85,51.023 
	78.951,45.06 85.039,51.023 85.039,30.767 85.039,20.26 85.039,0 "/>
</svg>
