<?xml version="1.0" encoding="utf-8"?>
<!-- Generator: Adobe Illustrator 16.0.0, SVG Export Plug-In . SVG Version: 6.00 Build 0)  -->
<!DOCTYPE svg PUBLIC "-//W3C//DTD SVG 1.1//EN" "http://www.w3.org/Graphics/SVG/1.1/DTD/svg11.dtd">
<svg version="1.1" id="Layer_1" xmlns="http://www.w3.org/2000/svg" xmlns:xlink="http://www.w3.org/1999/xlink" x="0px" y="0px"
	 width="150px" height="86.392px" viewBox="0 0 150 86.392" enable-background="new 0 0 150 86.392" xml:space="preserve">
<g>
	<path d="M6.234,85.89H0V49.572h8.753c6.988,0,10.561,2.968,10.561,10.714c0,5.835-2.262,8.199-4.377,9.155l5.285,16.448h-6.341
		L9.456,70.849c-0.807,0.102-2.111,0.153-3.222,0.153V85.89z M6.234,65.87h2.215c3.37,0,4.626-1.256,4.626-5.583
		c0-4.326-1.256-5.582-4.626-5.582H6.234V65.87z"/>
	<path d="M25.151,85.89V49.572h16.699v5.434H31.386v9.354h8.052v5.433h-8.052v10.664h11.169v5.432H25.151z"/>
	<path d="M60.061,61.695v-2.815c0-3.068-1.409-4.378-3.019-4.378c-2.514,0-3.318,1.31-3.318,4.025v18.408
		c0,2.717,0.805,4.026,3.318,4.026c2.262,0,3.019-1.309,3.019-3.674v-4.374h6.234v4.175c0,5.129-3.017,9.304-9.253,9.304
		c-6.54,0-9.559-4.174-9.559-9.304V58.375c0-5.13,3.019-9.305,9.559-9.305c6.236,0,9.253,4.527,9.253,9.958v2.666H60.061z"/>
	<path d="M72.634,85.89V49.572h16.699v5.434H78.874v9.354h8.046v5.433h-8.046v10.664h11.163v5.432H72.634z"/>
	<path d="M95.823,85.89V49.572h6.24V85.89H95.823z"/>
	<path d="M108.954,85.89V49.572h8.955c7.693,0,11.268,2.968,11.268,10.714c0,7.747-3.574,10.715-11.268,10.715h-2.72V85.89H108.954z
		 M115.189,65.87h2.415c4.074,0,5.332-1.256,5.332-5.583c0-4.326-1.258-5.582-5.332-5.582h-2.415V65.87z"/>
	<path d="M137.729,55.006h-6.036v-5.434H150v5.434h-6.036V85.89h-6.234V55.006z"/>
</g>
<g>
	<path d="M8.602,18.408h10.211v18.411h-3.017l-1.158-2.716c-1.861,2.212-3.37,3.218-6.289,3.218C3.421,37.321,0,33.801,0,28.016
		V9.304C0,4.175,3.018,0,9.153,0c6.236,0,9.355,4.527,9.355,9.958v2.313h-5.934c0-5.431-1.107-6.841-3.574-6.841
		c-1.508,0-2.767,0.905-2.767,3.975v18.662c0,2.313,0.76,3.823,2.919,3.823c2.514,0,3.422-1.41,3.422-5.032v-3.521H8.602V18.408z"/>
	<path d="M23.993,36.819V0.502h6.236v36.317H23.993z"/>
	<path d="M50.853,0.502h6.137l-7.592,36.317h-6.236L35.563,0.502h6.136l4.526,25.2h0.101L50.853,0.502z"/>
	<path d="M60.462,36.819V0.502h16.699v5.432H66.702v9.356h8.046v5.431h-8.046v10.664h11.163v5.434H60.462z"/>
</g>
</svg>
