<?xml version="1.0" encoding="utf-8"?>
<!DOCTYPE svg PUBLIC "-//W3C//DTD SVG 1.1//EN" "http://www.w3.org/Graphics/SVG/1.1/DTD/svg11.dtd">
<svg version="1.1" xmlns="http://www.w3.org/2000/svg" xmlns:xlink="http://www.w3.org/1999/xlink" x="0px" y="0px"
	 width="100%" height="100%" viewBox="40.841 65.573 224.013 292.768"
	 enable-background="new 40.841 65.573 224.013 292.768" xml:space="preserve">
<g>
	<path fill="#1E1E1E" d="M248.826,81.569l-15.984-15.996l-16.004,15.996l-16.006-15.996l-16.006,15.996l-15.984-15.996
		L152.83,81.569l-15.986-15.996L120.837,81.57l-16.003-15.996L88.827,81.57L72.842,65.574L56.827,81.57L40.841,65.574v292.767
		l15.985-15.994l16.016,15.994l15.984-15.994l16.007,15.994l16.004-15.994l16.006,15.994l15.986-15.994l16.011,15.994l15.984-15.994
		l16.006,15.994l16.006-15.994l16.016,15.994l15.975-15.994l16.027,15.994V65.573L248.826,81.569z M193.159,218.676h-33.594v33.594
		h-13.438v-33.594h-33.593v-13.438h33.593v-33.593h13.438v33.593h33.594V218.676z"/>
</g>
</svg>
