<?xml version="1.0" encoding="utf-8"?>
<!-- Generator: Adobe Illustrator 16.0.0, SVG Export Plug-In . SVG Version: 6.00 Build 0)  -->
<!DOCTYPE svg PUBLIC "-//W3C//DTD SVG 1.1//EN" "http://www.w3.org/Graphics/SVG/1.1/DTD/svg11.dtd">
<svg version="1.1" id="Layer_1" xmlns="http://www.w3.org/2000/svg" xmlns:xlink="http://www.w3.org/1999/xlink" x="0px" y="0px"
	 width="421.008px" height="505.625px" viewBox="0 0 421.008 505.625" enable-background="new 0 0 421.008 505.625"
	 xml:space="preserve">
<g>
	<path fill="#1E1E1E" d="M40.841,358.341l15.985-15.994l16.016,15.994l15.984-15.994l16.007,15.994l16.004-15.994l16.006,15.994
		l15.986-15.994l16.011,15.994l15.984-15.994l16.006,15.994l16.006-15.994l16.015,15.994l15.975-15.994l16.027,15.994V65.573
		l-16.027,15.996l-15.984-15.996l-16.004,15.996l-16.006-15.996l-16.006,15.996l-15.984-15.996L152.83,81.569l-15.986-15.996
		L120.837,81.57l-16.003-15.996L88.827,81.57L72.842,65.574L56.827,81.57L40.841,65.574V358.341z"/>
</g>
<polygon fill="#FFFFFF" points="210.159,202.405 162.399,202.405 162.399,154.645 143.294,154.645 143.294,202.405 95.534,202.405 
	95.534,221.509 143.294,221.509 143.294,269.269 162.399,269.269 162.399,221.509 210.159,221.509 "/>
</svg>
